<svg width="9" height="12" viewBox="0 0 9 12" fill="none" xmlns="http://www.w3.org/2000/svg">
<path d="M0.065341 12V10.4773L4.10511 6.51705C4.49148 6.12689 4.81345 5.7803 5.07102 5.47727C5.3286 5.17424 5.52178 4.88068 5.65057 4.59659C5.77936 4.3125 5.84375 4.00947 5.84375 3.6875C5.84375 3.32008 5.76042 3.00568 5.59375 2.74432C5.42708 2.47917 5.19792 2.27462 4.90625 2.13068C4.61458 1.98674 4.28314 1.91477 3.91193 1.91477C3.52936 1.91477 3.19413 1.99432 2.90625 2.15341C2.61837 2.30871 2.39489 2.5303 2.2358 2.81818C2.08049 3.10606 2.00284 3.44886 2.00284 3.84659H-0.00284088C-0.00284088 3.10795 0.16572 2.46591 0.502841 1.92045C0.839962 1.375 1.30398 0.952651 1.89489 0.653409C2.48958 0.354166 3.1714 0.204545 3.94034 0.204545C4.72064 0.204545 5.40625 0.350378 5.99716 0.642045C6.58807 0.933712 7.0464 1.33333 7.37216 1.84091C7.7017 2.34848 7.86648 2.92803 7.86648 3.57955C7.86648 4.01515 7.78314 4.44318 7.61648 4.86364C7.44981 5.28409 7.15625 5.75 6.7358 6.26136C6.31913 6.77273 5.7339 7.39205 4.98011 8.11932L2.97443 10.1591V10.2386H8.04261V12H0.065341Z" fill="#403F3D"/>
</svg>
