<svg width="9" height="13" viewBox="0 0 9 13" fill="none" xmlns="http://www.w3.org/2000/svg">
<path d="M4.49929 12.1591C3.68111 12.1591 2.95384 12.0189 2.31747 11.7386C1.6849 11.4583 1.1849 11.0682 0.817472 10.5682C0.450047 10.0682 0.254972 9.49053 0.232244 8.83523H2.36861C2.38755 9.14962 2.49171 9.42424 2.68111 9.65909C2.8705 9.89015 3.1224 10.0701 3.43679 10.1989C3.75118 10.3277 4.10346 10.392 4.49361 10.392C4.91027 10.392 5.27959 10.3201 5.60156 10.1761C5.92353 10.0284 6.17543 9.82386 6.35724 9.5625C6.53906 9.30114 6.62808 9 6.62429 8.65909C6.62808 8.30682 6.53717 7.99621 6.35156 7.72727C6.16596 7.45833 5.89702 7.24811 5.54474 7.09659C5.19626 6.94508 4.7758 6.86932 4.28338 6.86932H3.25497V5.24432H4.28338C4.68868 5.24432 5.04285 5.17424 5.34588 5.03409C5.6527 4.89394 5.89323 4.69697 6.06747 4.44318C6.24171 4.18561 6.32694 3.88826 6.32315 3.55114C6.32694 3.22159 6.25308 2.93561 6.10156 2.69318C5.95384 2.44697 5.74361 2.25568 5.47088 2.11932C5.20194 1.98295 4.88565 1.91477 4.52202 1.91477C4.16596 1.91477 3.83641 1.97917 3.53338 2.10795C3.23035 2.23674 2.98603 2.42045 2.80043 2.65909C2.61482 2.89394 2.51634 3.17424 2.50497 3.5H0.476562C0.491714 2.84848 0.679214 2.27652 1.03906 1.78409C1.4027 1.28788 1.88755 0.901515 2.49361 0.625C3.09967 0.344697 3.77959 0.204545 4.53338 0.204545C5.3099 0.204545 5.98414 0.350378 6.55611 0.642045C7.13187 0.929924 7.57694 1.31818 7.89134 1.80682C8.20573 2.29545 8.36293 2.83523 8.36293 3.42614C8.36671 4.08144 8.17353 4.63068 7.78338 5.07386C7.39702 5.51705 6.88944 5.80682 6.26065 5.94318V6.03409C7.07884 6.14773 7.70573 6.45076 8.14134 6.94318C8.58073 7.43182 8.79853 8.03977 8.79474 8.76705C8.79474 9.41856 8.60914 10.0019 8.23793 10.517C7.8705 11.0284 7.36293 11.4299 6.7152 11.7216C6.07126 12.0133 5.33262 12.1591 4.49929 12.1591Z" fill="#403F3D"/>
</svg>
