<svg width="9" height="13" viewBox="0 0 9 13" fill="none" xmlns="http://www.w3.org/2000/svg">
<path d="M6.77628 3.5625C6.72325 3.06629 6.49976 2.67992 6.10582 2.40341C5.71567 2.12689 5.2081 1.98864 4.5831 1.98864C4.1437 1.98864 3.76681 2.05492 3.45241 2.1875C3.13802 2.32008 2.89749 2.5 2.73082 2.72727C2.56416 2.95455 2.47893 3.21402 2.47514 3.50568C2.47514 3.74811 2.53007 3.95833 2.63991 4.13636C2.75355 4.31439 2.90696 4.46591 3.10014 4.59091C3.29332 4.71212 3.50734 4.81439 3.74219 4.89773C3.97704 4.98106 4.21378 5.05114 4.45241 5.10795L5.54332 5.38068C5.98272 5.48295 6.40507 5.62121 6.81037 5.79545C7.21946 5.9697 7.58499 6.18939 7.90696 6.45455C8.23272 6.7197 8.49029 7.03977 8.67969 7.41477C8.86908 7.78977 8.96378 8.22917 8.96378 8.73295C8.96378 9.41477 8.78954 10.0152 8.44105 10.5341C8.09257 11.0492 7.58878 11.4527 6.92969 11.7443C6.27438 12.0322 5.48082 12.1761 4.54901 12.1761C3.6437 12.1761 2.85772 12.036 2.19105 11.7557C1.52817 11.4754 1.00923 11.0663 0.634233 10.5284C0.263021 9.99053 0.0622633 9.33523 0.0319602 8.5625H2.10582C2.13613 8.9678 2.26113 9.30492 2.48082 9.57386C2.70052 9.8428 2.98651 10.0436 3.33878 10.1761C3.69484 10.3087 4.09257 10.375 4.53196 10.375C4.99029 10.375 5.39181 10.3068 5.73651 10.1705C6.08499 10.0303 6.35772 9.83712 6.55469 9.59091C6.75166 9.34091 6.85204 9.04924 6.85582 8.71591C6.85204 8.41288 6.76302 8.16288 6.58878 7.96591C6.41454 7.76515 6.17022 7.59848 5.85582 7.46591C5.54522 7.32955 5.18158 7.20833 4.76491 7.10227L3.44105 6.76136C2.48272 6.51515 1.72514 6.14205 1.16832 5.64205C0.615294 5.13826 0.338778 4.4697 0.338778 3.63636C0.338778 2.95076 0.524385 2.35038 0.895597 1.83523C1.2706 1.32008 1.78007 0.920454 2.42401 0.636363C3.06795 0.348484 3.79711 0.204545 4.61151 0.204545C5.43726 0.204545 6.16075 0.348484 6.78196 0.636363C7.40696 0.920454 7.89749 1.31629 8.25355 1.82386C8.60961 2.32765 8.79332 2.9072 8.80469 3.5625H6.77628Z" fill="#403F3D"/>
</svg>
